Coordinates
version=1
nRows=32
nColumns=12
inDegrees=yes

Units are S.I. units (second, meters, Newtons, ...)
Angles are in degrees

endheader
time	SC_y	SC_z	SC_x	AC_y	AC_z	AC_x	GH_y	GH_z	GH_yy	EL_x	PS_y
       0.0              -57.91          21.58          53.33          38.47         -13.77          1.764          80.78          56.69         -15.72          34.14          71.61
  0.009169              -57.91          21.58          53.32          38.47         -13.77          1.762          80.78          56.69         -15.71          34.14          71.61
   0.01834              -57.91          21.58          53.32          38.47         -13.77          1.759          80.78          56.68         -15.69          34.14          71.62
   0.02751              -57.91          21.58          53.31          38.48         -13.77          1.755          80.79          56.68         -15.67          34.14          71.63
   0.03668              -57.91          21.58           53.3          38.48         -13.77          1.752          80.79          56.68         -15.65          34.14          71.64
   0.04584              -57.91          21.58           53.3          38.48         -13.77          1.749          80.79          56.67         -15.63          34.14          71.66
   0.05501              -57.91          21.58          53.29          38.49         -13.77          1.745           80.8          56.67         -15.61          34.13          71.67
   0.06418              -57.91          21.58          53.28          38.49         -13.77          1.741           80.8          56.66         -15.58          34.13          71.68
   0.07335               -57.9          21.58          53.27           38.5         -13.77          1.736          80.81          56.66         -15.56          34.13           71.7
   0.08252               -57.9          21.58          53.27           38.5         -13.77          1.732          80.81          56.65         -15.53          34.13          71.71
   0.09169               -57.9          21.58          53.26          38.51         -13.77          1.727          80.82          56.64          -15.5          34.13          71.73
    0.1009               -57.9          21.58          53.25          38.52         -13.77          1.721          80.82          56.64         -15.47          34.13          71.75
      0.11               -57.9          21.58          53.23          38.52         -13.77          1.716          80.83          56.63         -15.43          34.13          71.76
    0.1192               -57.9          21.58          53.22          38.53         -13.77          1.709          80.83          56.62         -15.39          34.13          71.78
    0.1284               -57.9          21.59          53.21          38.54         -13.77          1.703          80.84          56.61         -15.35          34.13          71.81
    0.1375               -57.9          21.59          53.19          38.55         -13.77          1.695          80.85           56.6         -15.31          34.12          71.83
    0.1467               -57.9          21.59          53.18          38.55         -13.77          1.687          80.86          56.59         -15.26          34.12          71.86
    0.1559               -57.9          21.59          53.16          38.56         -13.77          1.679          80.87          56.58         -15.21          34.12          71.89
     0.165               -57.9          21.59          53.14          38.57         -13.77          1.669          80.88          56.57         -15.15          34.12          71.92
    0.1742               -57.9          21.59          53.12          38.59         -13.77          1.659          80.89          56.56         -15.09          34.12          71.95
    0.1834               -57.9          21.59           53.1           38.6         -13.77          1.647           80.9          56.54         -15.02          34.11          71.99
    0.1925               -57.9          21.59          53.08          38.61         -13.77          1.635          80.91          56.53         -14.95          34.11          72.03
    0.2017               -57.9          21.59          53.05          38.63         -13.77          1.621          80.93          56.51         -14.86          34.11          72.07
    0.2109               -57.9          21.59          53.02          38.65         -13.76          1.605          80.94          56.49         -14.77          34.11          72.12
    0.2201              -57.89          21.59          52.99          38.67         -13.76          1.588          80.96          56.47         -14.67           34.1          72.18
    0.2292              -57.89          21.59          52.95          38.69         -13.76          1.569          80.98          56.44         -14.56           34.1          72.24
    0.2384              -57.89          21.59          52.91          38.71         -13.76          1.548           81.0          56.41         -14.43          34.09          72.31
    0.2476              -57.89          21.59          52.86          38.74         -13.76          1.524          81.03          56.38         -14.28          34.09          72.39
    0.2567              -57.89          21.59          52.81          38.77         -13.76          1.497          81.06          56.35         -14.12          34.08          72.48
    0.2659              -57.88          21.59          52.75           38.8         -13.76          1.466          81.09          56.31         -13.94          34.08          72.58
    0.2751              -57.88          21.59          52.68          38.84         -13.76          1.431          81.13          56.26         -13.73          34.07           72.7
    0.2842              -57.88           21.6          52.61          38.89         -13.76           1.39          81.17          56.21         -13.49          34.06          72.83
